<?xml version="1.0" encoding="utf-8"?>
<!-- Generator: Adobe Illustrator 22.1.0, SVG Export Plug-In . SVG Version: 6.00 Build 0)  -->
<svg version="1.1" id="Layer_1" xmlns="http://www.w3.org/2000/svg" xmlns:xlink="http://www.w3.org/1999/xlink" x="0px" y="0px"
	 viewBox="0 0 1000 1000" style="enable-background:new 0 0 1000 1000;" xml:space="preserve">
<style type="text/css">
	.st0{fill:#000F9F;}
	
		.st1{fill-rule:evenodd;clip-rule:evenodd;fill:#000F9F;stroke:#000F9F;stroke-width:0.719;stroke-linecap:round;stroke-linejoin:round;}
</style>
<g>
	<g>
		<g>
			<path class="st0" d="M285.7,465.6c-13.5,0-23.4-8.9-23.4-22c0-12.9,9.9-21.8,23.4-21.8c13.3,0,23.4,8.9,23.4,21.8
				C309.1,456.7,298.9,465.6,285.7,465.6"/>
			<path class="st0" d="M305.9,491.1c0-8.2-2.4-11.2-9.6-11.2c-7,0-35.6,0-35.6,0c3.2,4.5,3.7,8.1,3.7,12.7c0,30,0,72.2,0,86
				c0,25.6,8.3,31.1,26.7,31.1c10,0,16.9-0.6,25-2.6c-7.4-3.3-10.2-14-10.2-30C305.9,568.5,305.9,514.8,305.9,491.1"/>
			<path class="st0" d="M507.1,465.6c-13.5,0-23.4-8.9-23.4-22c0-12.9,9.9-21.8,23.4-21.8c13.2,0,23.4,8.9,23.4,21.8
				C530.5,456.7,520.4,465.6,507.1,465.6"/>
			<path class="st0" d="M527.3,491.1c0-8.2-2.3-11.2-9.6-11.2c-7,0-35.6,0-35.6,0c3.2,4.5,3.7,8.1,3.7,12.7c0,30,0,72.2,0,86
				c0,25.6,8.3,31.1,26.6,31.1c10,0,16.9-0.6,25-2.6c-7.4-3.3-10.2-14-10.2-30C527.3,568.5,527.3,514.8,527.3,491.1"/>
			<path class="st0" d="M834.1,465.6c-13.5,0-23.4-8.9-23.4-22c0-12.9,9.9-21.8,23.4-21.8c13.2,0,23.4,8.9,23.4,21.8
				C857.4,456.7,847.3,465.6,834.1,465.6"/>
			<path class="st0" d="M854.3,491.1c0-8.2-2.4-11.2-9.6-11.2c-7,0-35.6,0-35.6,0c3.2,4.5,3.6,8.1,3.6,12.7c0,30,0,72.2,0,86
				c0,25.6,8.3,31.1,26.6,31.1c10,0,16.9-0.6,25.1-2.6c-7.5-3.3-10.2-14-10.2-30C854.3,568.5,854.3,514.8,854.3,491.1"/>
			<path class="st0" d="M784.1,433.5c0-11.9-6-16.9-17.3-16.9c-7,0-27.8,0-27.8,0c3.2,4.5,3.7,8.1,3.7,12.7c0,30,0,135.6,0,149.3
				c0,25.6,8.3,31.1,26.7,31.1c10,0,16.9-0.6,25-2.6c-7.5-3.3-10.2-14-10.2-30C784.1,568.5,784.1,457.2,784.1,433.5"/>
			<path class="st0" d="M456.1,577.1c0-9.4,0-112.7,0-145.2c0-11.5-4.5-15.2-16.3-15.2c-4.5,0-28.4,0-28.4,0
				c1.9,2.6,3.2,7.2,3.2,11.2c0,14.7,0,36.7,0,58.2c-6-4.9-16-8.6-26.4-8.6c-38.2,0-62.9,29.5-62.9,71.3c0,42.3,20.5,61.9,49.3,61.9
				c17.7,0,35.1-12,41.7-27.3c3.7,18.7,12.5,26.1,25,26.1c11,0,17.1-0.7,25.1-2.3C458.9,604.1,456.1,593.1,456.1,577.1 M414.6,542.4
				c0,22.6-7.9,39.8-23.1,39.8c-12.1,0-20.6-10.5-20.6-38.2c0-31.7,9.5-46.5,26.9-46.5c6.6,0,12.5,1.5,16.7,4.4
				C414.6,526,414.6,528.7,414.6,542.4z"/>
			<path class="st0" d="M695,479.6c-10.4,0-15.6,3.2-18,6.7c-6.1-4.9-17.2-8.6-30.4-8.6c-38.2,0-62.9,29.5-62.9,71.3
				c0,42.3,20.5,61.9,49.3,61.9c17.7,0,35.1-12,41.7-27.3c3.6,18.7,12.5,26.1,25,26.1c11,0,17.1-0.7,25-2.3
				c-7.5-3.3-10.2-14.3-10.2-30.3c0-8.3,0-51.9,0-84.4c0-4.5,0.8-9.8,2-12.8C716.6,480,704.8,479.6,695,479.6 M673.1,542.4
				c0,22.6-7.9,39.8-23.1,39.8c-12.1,0-20.6-10.5-20.6-38.2c0-31.7,9.5-46.5,26.9-46.5c6.6,0,12.5,1.5,16.7,4.4
				C673.1,526,673.1,528.7,673.1,542.4z"/>
			<path class="st0" d="M163.5,598.2c23.7,0,40.5-13.1,40.5-34.1c0-46.2-92.3-52.6-92.3-119.1c0-36.5,30.7-64.1,77.9-64.1
				c26,0,44.3,9.5,46.7,20.8c2.3,11.3-7.6,26.6-7.6,26.6c-7.6-16.7-30.1-26.8-45-26.8c-19.6,0-31.1,13.1-31.1,29.3
				c0,44.1,95.1,50,95.1,118.8c0,47-44.5,70.9-82.5,70.9c-35.8,0-57.4-11.1-60.2-24.2c-2.7-13.1,8.8-30.8,8.8-30.8
				C123.1,584.8,141.4,598.2,163.5,598.2"/>
		</g>
		<g>
			<g>
				<defs>
					<path id="SVGID_1_" d="M266,463c-5.2-4.8-8.3-11.7-8.2-19.5c0-7.7,3-14.6,8.2-19.3c5.2-4.8,12.2-7.4,20.1-7.4
						c7.7,0,14.8,2.6,20,7.4c5.2,4.7,8.3,11.6,8.3,19.3c0.1,7.8-3.1,14.7-8.3,19.5c-5.2,4.8-12.3,7.4-20,7.4v-9.8
						c11.1-0.3,18.3-6.8,18.4-17.1c-0.1-10.1-7.4-16.7-18.4-16.9c-11.3,0.2-18.3,6.7-18.5,16.9c0.2,10.4,7.2,16.9,18.5,17.1v9.8
						C278.3,470.5,271.2,467.8,266,463"/>
				</defs>
				<use xlink:href="#SVGID_1_"  style="overflow:visible;fill:#939598;"/>
				<clipPath id="SVGID_2_">
					<use xlink:href="#SVGID_1_"  style="overflow:visible;"/>
				</clipPath>
			</g>
			<g>
				<defs>
					<path id="SVGID_3_" d="M291.5,614.5c-9.5,0-17.8-1.3-23.8-7.5c-5.8-6.2-7.8-15.3-7.8-28.5c0-13.7,0-56,0-86
						c-0.1-4.3-0.2-6.2-2.7-9.9l-5.5-7.7h9.5c0,0,28.6,0,35.6,0c4.1-0.1,8.4,0.9,11.2,4.2c2.7,3.4,3.2,7.4,3.2,11.8h0
						c0,23.7,0,77.4,0,86c0,7.7,0.7,14,2,18.3c1.5,4.3,3.2,6.3,5.2,7.2l13.2,5.8l-14,3.4c-8.5,2-16,2.7-26,2.7H291.5 M269.8,492.5
						c0,30,0,72.3,0,86c0,12.4,2.2,18.8,5.1,21.8c2.8,3,7.8,4.4,16.7,4.4c5.9,0,10.5-0.2,14.9-0.8c-1-1.8-1.8-3.6-2.5-5.7
						c-1.8-5.9-2.5-13-2.5-21.3c0-8.5,0-62.3,0-86c0.1-3.7-0.7-5.4-0.9-5.5c-0.1-0.1-0.7-0.7-3.7-0.8c-4.7,0-18.9,0-27.9,0
						C269.6,487.4,269.8,490.1,269.8,492.5z"/>
				</defs>
				<use xlink:href="#SVGID_3_"  style="overflow:visible;fill:#939598;"/>
				<clipPath id="SVGID_4_">
					<use xlink:href="#SVGID_3_"  style="overflow:visible;"/>
				</clipPath>
			</g>
			<g>
				<defs>
					<path id="SVGID_5_" d="M507.5,465.6v-4.9c11.1-0.3,18.3-6.8,18.5-17.1c-0.1-10.1-7.4-16.7-18.5-16.9
						c-11.3,0.2-18.3,6.7-18.4,16.9c0.2,10.4,7.2,16.9,18.4,17.1v9.8c-7.8,0-14.9-2.6-20.1-7.4c-5.2-4.8-8.2-11.7-8.2-19.5
						c0-7.7,3.1-14.6,8.2-19.3c5.2-4.8,12.3-7.4,20.1-7.4c7.8,0,14.8,2.6,20,7.4c5.2,4.7,8.3,11.6,8.3,19.3c0,7.8-3.1,14.7-8.3,19.5
						c-5.2,4.8-12.2,7.4-20,7.4V465.6"/>
				</defs>
				<use xlink:href="#SVGID_5_"  style="overflow:visible;fill:#939598;"/>
				<clipPath id="SVGID_6_">
					<use xlink:href="#SVGID_5_"  style="overflow:visible;"/>
				</clipPath>
			</g>
			<g>
				<defs>
					<path id="SVGID_7_" d="M512.9,614.5c-9.5,0-17.8-1.3-23.8-7.5c-5.8-6.2-7.8-15.3-7.8-28.5c0-13.7,0-56,0-86
						c-0.1-4.3-0.2-6.2-2.7-9.9l-5.5-7.7h9.5c0,0,28.6,0,35.6,0c4.1-0.1,8.4,0.9,11.2,4.2c2.8,3.4,3.2,7.4,3.3,11.8
						c0,23.7,0,77.4,0,86c0,7.7,0.7,14,2.1,18.3c1.4,4.3,3.2,6.3,5.2,7.2l13.1,5.8l-14,3.4c-8.4,2-15.9,2.7-25.8,2.7H512.9
						 M491.2,492.5c0,30,0,72.3,0,86c0,12.4,2.2,18.8,5.1,21.8c2.8,3,7.8,4.4,16.6,4.4c5.9,0,10.5-0.2,14.9-0.8
						c-1-1.8-1.9-3.6-2.4-5.7c-1.9-5.9-2.6-13-2.6-21.3c0-8.5,0-62.3,0-86c0-3.7-0.7-5.4-0.9-5.5c-0.1-0.1-0.7-0.7-3.7-0.8
						c-3.5,0-12.4,0-20.4,0c-2.6,0-5.2,0-7.4,0C491.1,487.4,491.2,490.1,491.2,492.5z"/>
				</defs>
				<use xlink:href="#SVGID_7_"  style="overflow:visible;fill:#939598;"/>
				<clipPath id="SVGID_8_">
					<use xlink:href="#SVGID_7_"  style="overflow:visible;"/>
				</clipPath>
			</g>
			<g>
				<defs>
					<path id="SVGID_9_" d="M834.5,465.6v-4.9c11.1-0.3,18.3-6.8,18.4-17.1c-0.1-10.1-7.4-16.7-18.4-16.9
						c-11.3,0.2-18.3,6.7-18.5,16.9c0.2,10.4,7.1,16.9,18.5,17.1v9.8c-7.8,0-14.9-2.6-20.1-7.4c-5.2-4.8-8.2-11.7-8.2-19.5
						c0-7.7,3.1-14.6,8.2-19.3c5.2-4.8,12.2-7.4,20.1-7.4c7.7,0,14.8,2.6,20,7.4c5.2,4.7,8.3,11.6,8.3,19.3c0,7.8-3.1,14.7-8.3,19.5
						c-5.2,4.8-12.2,7.4-20,7.4V465.6"/>
				</defs>
				<use xlink:href="#SVGID_9_"  style="overflow:visible;fill:#939598;"/>
				<clipPath id="SVGID_10_">
					<use xlink:href="#SVGID_9_"  style="overflow:visible;"/>
				</clipPath>
			</g>
			<g>
				<defs>
					<path id="SVGID_11_" d="M839.9,614.5c-9.5,0-17.8-1.3-23.8-7.5c-5.8-6.2-7.7-15.3-7.8-28.5c0-13.7,0-56,0-86
						c-0.1-4.3-0.2-6.2-2.8-9.9l-5.5-7.7h9.5c0.1,0,28.6,0,35.6,0c4.1-0.1,8.4,0.9,11.2,4.2c2.7,3.4,3.2,7.4,3.2,11.8
						c0,23.7,0,77.4,0,86c0,7.7,0.7,14,2.1,18.3c1.4,4.3,3.2,6.3,5.2,7.2l13.2,5.8l-14,3.4c-8.4,2-15.9,2.7-25.8,2.7H839.9
						 M818.2,492.5c0,30,0,72.3,0,86c-0.1,12.4,2.1,18.8,5.1,21.8c2.8,3,7.8,4.4,16.7,4.4c5.9,0,10.5-0.2,14.9-0.8
						c-1-1.8-1.8-3.6-2.5-5.7c-1.8-5.9-2.5-13-2.5-21.3c0-8.5,0-62.3,0-86c0.1-3.7-0.7-5.4-0.9-5.5c-0.1-0.1-0.6-0.7-3.7-0.8
						c-3.5,0-12.4,0-20.4,0c-2.7,0-5.2,0-7.5,0C818.1,487.4,818.2,490.1,818.2,492.5z"/>
				</defs>
				<use xlink:href="#SVGID_11_"  style="overflow:visible;fill:#939598;"/>
				<clipPath id="SVGID_12_">
					<use xlink:href="#SVGID_11_"  style="overflow:visible;"/>
				</clipPath>
			</g>
			<g>
				<defs>
					<path id="SVGID_13_" d="M769.7,614.5c-9.5,0-17.8-1.3-23.8-7.5c-5.8-6.2-7.8-15.3-7.8-28.5c0-13.7,0-119.3,0-149.3
						c-0.1-4.3-0.3-6.2-2.8-9.9l-5.5-7.7h9.5c0,0,20.8,0,27.8,0c6.4,0,12.1,1.4,16.3,5.3c4.2,3.9,6,9.8,6,16.5c0,23.6,0,135,0,143.5
						c0,7.7,0.7,14,2.1,18.3c1.4,4.3,3.2,6.3,5.2,7.2l13.2,5.8l-14,3.4c-8.4,2-15.8,2.7-25.8,2.7H769.7 M748,429.2
						c0,30,0,135.6,0,149.3c-0.1,12.4,2.1,18.8,5.1,21.8c2.8,3,7.8,4.4,16.6,4.4c5.9,0,10.5-0.2,14.9-0.8c-1-1.8-1.8-3.6-2.4-5.7
						c-1.9-5.9-2.6-13-2.6-21.3c0-8.5,0-119.9,0-143.5c0-5.2-1.2-7.9-2.8-9.4c-1.6-1.5-4.5-2.7-9.6-2.7c-4.2,0-13.4,0-20.1,0
						C747.9,424.2,748,426.8,748,429.2z"/>
				</defs>
				<use xlink:href="#SVGID_13_"  style="overflow:visible;fill:#939598;"/>
				<clipPath id="SVGID_14_">
					<use xlink:href="#SVGID_13_"  style="overflow:visible;"/>
				</clipPath>
			</g>
			<g>
				<defs>
					<path id="SVGID_15_" d="M335.8,598.9c-9.8-11.4-15-28.1-15-50c0-21.8,6.5-40.9,18.3-54.5c11.9-13.7,29.2-21.7,49.5-21.7
						c7.8,0,15.3,1.8,21.5,4.7c0-18.6,0-36.8,0-49.5c0.1-2.9-1.2-7-2.3-8.3l-5.8-7.8h9.8c0,0,23.9,0,28.4,0c6.3,0,11.7,0.9,15.9,4.5
						c4.1,3.8,5.3,9.3,5.3,15.5c0,32.4,0,135.7,0,145.1c0,7.7,0.7,14.1,2.1,18.5c1.4,4.4,3.2,6.5,5.2,7.4l14,6.3l-15,3
						c-8.1,1.7-14.8,2.4-26,2.4c-7.2,0-14.1-2.3-19.3-7.5c-3-3-5.4-6.8-7.3-11.4c-9.4,11.9-24.3,20-40.1,20.1h-0.2
						C359.4,615.7,345.5,610.3,335.8,598.9 M388.6,482.5c-35.3,0.2-57.7,26.5-58,66.4c0,20.4,4.9,34.7,12.7,43.7
						c7.8,9,18.4,13.3,31.8,13.3c15.5,0.1,31.6-11,37.2-24.3l6.3-14.5l3,15.6c1.7,8.8,4.6,14.3,7.8,17.5c3.3,3.2,7.1,4.6,12.4,4.6
						c6.2,0,10.7-0.2,14.8-0.7c-1-1.8-1.8-3.7-2.4-5.6c-1.8-5.9-2.5-13.1-2.5-21.4c0-9.4,0-112.7,0-145.1c0-5.3-1.1-7.4-2.1-8.3
						c-1.1-1-3.8-2-9.3-2c-2.9,0-13.6,0-21.1,0c0.5,2.1,0.7,4.2,0.7,6.3c0,14.7,0,36.6,0,58.2v10.2l-8-6.4c-4.9-4-14-7.5-23.3-7.5
						H388.6z M373,575.8c-4.3-7.3-6.4-17.6-6.4-32c0-16.3,2.3-28.7,7.6-37.6c5.2-9,14.1-13.9,24.2-13.8c7.3,0,14.1,1.7,19.5,5.2
						l2.2,1.4v2.6c0,24.2,0,26.9,0,40.6c0,11.9-2,22.5-6.4,30.7c-4.3,8.2-11.9,14-21.5,14h-0.4C384.3,586.9,377.2,583.1,373,575.8z
						 M398.3,502.2c-7.3,0.2-11.8,2.6-15.8,9c-3.8,6.4-6.2,17.2-6.2,32.6c0,13.4,2.2,22.1,5.1,27c3,4.8,6,6.2,10.6,6.3
						c5.6-0.1,9.5-2.8,12.9-8.9c3.3-6,5.3-15.2,5.3-26c0-13.1,0-16.1,0-37.7c-3.1-1.4-7.2-2.3-11.7-2.3H398.3z"/>
				</defs>
				<use xlink:href="#SVGID_15_"  style="overflow:visible;fill:#939598;"/>
				<clipPath id="SVGID_16_">
					<use xlink:href="#SVGID_15_"  style="overflow:visible;"/>
				</clipPath>
			</g>
			<g>
				<defs>
					<path id="SVGID_17_" d="M594.3,598.9c-9.7-11.4-15.1-28.1-15.1-50c0-21.8,6.5-40.9,18.4-54.5c11.8-13.7,29.1-21.7,49.5-21.7
						c12,0.1,22.3,2.7,29.8,7.1c4-3.2,10.2-5.3,18.7-5.2v9.8c-9.4,0-12.8,2.8-14,4.5l-3,4.3l-4.1-3.3c-4.7-3.9-15-7.5-27.3-7.5
						c-35.3,0.2-57.7,26.5-58,66.4c0,20.4,4.9,34.7,12.7,43.7c7.7,9,18.4,13.3,31.8,13.3c15.5,0.1,31.5-11,37.2-24.3L677,567l3,15.6
						c1.7,8.8,4.5,14.3,7.8,17.5c3.3,3.2,7.1,4.6,12.4,4.6c6.2,0,10.7-0.2,14.8-0.7c-1-1.8-1.8-3.7-2.4-5.6
						c-1.9-5.9-2.5-13.1-2.5-21.4c0-8.2,0-51.9,0-84.3c0-2.7,0.2-5.4,0.7-8.1c-4.2-0.1-10-0.2-15.3-0.2v-9.8
						c9.9,0,21.7,0.4,21.7,0.4l6.9,0.2l-2.5,6.5c-0.8,2-1.7,7.1-1.7,11c0,32.5,0,76.1,0,84.3c0,7.7,0.7,14.1,2.1,18.5
						c1.4,4.4,3.2,6.5,5.2,7.4l14,6.3l-15,3c-8.1,1.7-14.8,2.4-26,2.4c-7.2,0-14.1-2.3-19.3-7.5c-3.1-3-5.5-6.8-7.3-11.4
						c-9.4,11.9-24.3,20-40.1,20.1h-0.2C617.9,615.7,604,610.3,594.3,598.9 M631.4,575.8c-4.3-7.3-6.4-17.6-6.5-32
						c0-16.3,2.4-28.7,7.6-37.6c5.2-9,14.1-13.9,24.2-13.8c7.3,0,14.1,1.6,19.4,5.2l2.2,1.4v2.6c0,24.2,0,26.9,0,40.6
						c0,11.9-2,22.5-6.5,30.7c-4.3,8.2-11.9,14-21.5,14h-0.4C642.7,586.9,635.6,583.1,631.4,575.8z M656.8,502.2
						c-7.3,0.2-11.8,2.6-15.8,9c-3.8,6.4-6.3,17.2-6.2,32.6c0,13.4,2.1,22.1,5.1,27c3,4.8,6,6.2,10.6,6.3c5.6-0.1,9.4-2.8,12.9-8.9
						c3.3-6,5.3-15.2,5.2-26c0-13.1,0-16.1,0-37.7c-3.1-1.4-7.1-2.3-11.7-2.3H656.8z"/>
				</defs>
				<use xlink:href="#SVGID_17_"  style="overflow:visible;fill:#939598;"/>
				<clipPath id="SVGID_18_">
					<use xlink:href="#SVGID_17_"  style="overflow:visible;"/>
				</clipPath>
			</g>
			<g>
				<defs>
					<path id="SVGID_19_" d="M121.3,617.7c-11-4.8-18.6-11.7-20.5-20.6c-0.4-1.8-0.5-3.5-0.5-5.3c0.2-14.6,9.9-28.8,10-29.2l4.8-7.4
						l3.7,8c8.4,17.9,25,30,45.1,30v9.8c-20.9,0-38.7-11-49.5-27.5l-0.2,0.5c-2.2,4.8-4.3,10.9-4.2,15.9c0,1.2,0.1,2.3,0.3,3.3
						c0.8,4.2,5.4,9.5,14.8,13.5c9.4,4.1,23.2,6.8,40.5,6.8c18,0,37.7-5.7,52.6-16.8c14.9-11.2,25-27.3,25.1-49.2
						c-0.1-24-12.1-39.3-28.3-52.4c-16.2-13.1-36.1-22.9-50.3-35.3c-9.4-8.2-16.6-18.2-16.5-31.1c0-9.3,3.3-17.9,9.6-24.2
						c6.3-6.3,15.5-10.1,26.4-10c14.4,0.2,33.6,7.8,44.6,21.9c1.8-4,3.4-9.1,3.4-13.1c0-1-0.1-1.9-0.3-2.7
						c-0.6-3.3-4.4-7.8-11.7-11.2c-7.3-3.4-17.8-5.7-30.2-5.7c-45.4,0.2-73,25.8-73,59.2c0.1,23.1,11.7,37.9,27.4,51
						c15.7,12.9,35.1,23,48.9,35.9c9.1,8.5,16,19,16,32.3c0,11.8-4.9,21.9-13.2,28.6C188,599.5,176.7,603,164,603v-9.8
						c22-0.4,35.4-11.3,35.6-29.2c-0.1-9.8-4.7-17.5-12.9-25.2c-8.1-7.7-19.5-14.8-31.1-22.7c-23.1-15.6-48.3-35.3-48.3-71.2
						c0-19.6,8.4-37.2,23-49.5c14.6-12.3,35.3-19.5,59.9-19.5c13.6,0,25.3,2.5,34.3,6.7c8.9,4.2,15.5,10.1,17.2,18.1
						c0.3,1.5,0.5,3.1,0.5,4.6c-0.2,12.9-8.6,25.1-8.7,25.6l-4.9,7.5l-3.7-8.2c-6.1-14.2-27.6-24.2-40.4-23.9
						c-17.2,0.3-25.9,10.6-26.2,24.4c0,9.1,4.8,16.3,13.2,23.8c8.4,7.3,20.2,14.3,32.1,22.2c23.8,15.6,49.8,35.8,49.8,72.8
						c0.1,25.1-12.1,44.5-29,57c-16.9,12.6-38.4,18.8-58.5,18.8C147.3,625.3,132.4,622.4,121.3,617.7"/>
				</defs>
				<use xlink:href="#SVGID_19_"  style="overflow:visible;fill:#939598;"/>
				<clipPath id="SVGID_20_">
					<use xlink:href="#SVGID_19_"  style="overflow:visible;"/>
				</clipPath>
			</g>
		</g>
		<g>
			<path class="st0" d="M285.7,465.6c-13.5,0-23.4-8.9-23.4-22c0-12.9,9.9-21.8,23.4-21.8c13.3,0,23.4,8.9,23.4,21.8
				C309.1,456.7,298.9,465.6,285.7,465.6"/>
			<path class="st0" d="M305.9,491.1c0-8.2-2.4-11.2-9.6-11.2c-7,0-35.6,0-35.6,0c3.2,4.5,3.7,8.1,3.7,12.7c0,30,0,72.2,0,86
				c0,25.6,8.3,31.1,26.7,31.1c10,0,16.9-0.6,25-2.6c-7.4-3.3-10.2-14-10.2-30C305.9,568.5,305.9,514.8,305.9,491.1"/>
			<path class="st0" d="M507.1,465.6c-13.5,0-23.4-8.9-23.4-22c0-12.9,9.9-21.8,23.4-21.8c13.2,0,23.4,8.9,23.4,21.8
				C530.5,456.7,520.4,465.6,507.1,465.6"/>
			<path class="st0" d="M527.3,491.1c0-8.2-2.3-11.2-9.6-11.2c-7,0-35.6,0-35.6,0c3.2,4.5,3.7,8.1,3.7,12.7c0,30,0,72.2,0,86
				c0,25.6,8.3,31.1,26.6,31.1c10,0,16.9-0.6,25-2.6c-7.4-3.3-10.2-14-10.2-30C527.3,568.5,527.3,514.8,527.3,491.1"/>
			<path class="st0" d="M834.1,465.6c-13.5,0-23.4-8.9-23.4-22c0-12.9,9.9-21.8,23.4-21.8c13.2,0,23.4,8.9,23.4,21.8
				C857.4,456.7,847.3,465.6,834.1,465.6"/>
			<path class="st0" d="M854.3,491.1c0-8.2-2.4-11.2-9.6-11.2c-7,0-35.6,0-35.6,0c3.2,4.5,3.6,8.1,3.6,12.7c0,30,0,72.2,0,86
				c0,25.6,8.3,31.1,26.6,31.1c10,0,16.9-0.6,25.1-2.6c-7.5-3.3-10.2-14-10.2-30C854.3,568.5,854.3,514.8,854.3,491.1"/>
			<path class="st0" d="M784.1,433.5c0-11.9-6-16.9-17.3-16.9c-7,0-27.8,0-27.8,0c3.2,4.5,3.7,8.1,3.7,12.7c0,30,0,135.6,0,149.3
				c0,25.6,8.3,31.1,26.7,31.1c10,0,16.9-0.6,25-2.6c-7.5-3.3-10.2-14-10.2-30C784.1,568.5,784.1,457.2,784.1,433.5"/>
			<path class="st0" d="M456.1,577.1c0-9.4,0-112.7,0-145.2c0-11.5-4.5-15.2-16.3-15.2c-4.5,0-28.4,0-28.4,0
				c1.9,2.6,3.2,7.2,3.2,11.2c0,14.7,0,36.7,0,58.2c-6-4.9-16-8.6-26.4-8.6c-38.2,0-62.9,29.5-62.9,71.3c0,42.3,20.5,61.9,49.3,61.9
				c17.7,0,35.1-12,41.7-27.3c3.7,18.7,12.5,26.1,25,26.1c11,0,17.1-0.7,25.1-2.3C458.9,604.1,456.1,593.1,456.1,577.1 M414.6,542.4
				c0,22.6-7.9,39.8-23.1,39.8c-12.1,0-20.6-10.5-20.6-38.2c0-31.7,9.5-46.5,26.9-46.5c6.6,0,12.5,1.5,16.7,4.4
				C414.6,526,414.6,528.7,414.6,542.4z"/>
			<path class="st0" d="M695,479.6c-10.4,0-15.6,3.2-18,6.7c-6.1-4.9-17.2-8.6-30.4-8.6c-38.2,0-62.9,29.5-62.9,71.3
				c0,42.3,20.5,61.9,49.3,61.9c17.7,0,35.1-12,41.7-27.3c3.6,18.7,12.5,26.1,25,26.1c11,0,17.1-0.7,25-2.3
				c-7.5-3.3-10.2-14.3-10.2-30.3c0-8.3,0-51.9,0-84.4c0-4.5,0.8-9.8,2-12.8C716.6,480,704.8,479.6,695,479.6 M673.1,542.4
				c0,22.6-7.9,39.8-23.1,39.8c-12.1,0-20.6-10.5-20.6-38.2c0-31.7,9.5-46.5,26.9-46.5c6.6,0,12.5,1.5,16.7,4.4
				C673.1,526,673.1,528.7,673.1,542.4z"/>
			<path class="st0" d="M163.5,598.2c23.7,0,40.5-13.1,40.5-34.1c0-46.2-92.3-52.6-92.3-119.1c0-36.5,30.7-64.1,77.9-64.1
				c26,0,44.3,9.5,46.7,20.8c2.3,11.3-7.6,26.6-7.6,26.6c-7.6-16.7-30.1-26.8-45-26.8c-19.6,0-31.1,13.1-31.1,29.3
				c0,44.1,95.1,50,95.1,118.8c0,47-44.5,70.9-82.5,70.9c-35.8,0-57.4-11.1-60.2-24.2c-2.7-13.1,8.8-30.8,8.8-30.8
				C123.1,584.8,141.4,598.2,163.5,598.2"/>
		</g>
	</g>
	<path class="st1" d="M898.6,431.3c0,1.5-0.3,2.9-0.9,4.2c-0.6,1.3-1.4,2.4-2.5,3.4c-1.1,1-2.3,1.8-3.7,2.3
		c-1.4,0.6-2.9,0.8-4.6,0.8c-1.6,0-3.1-0.3-4.6-0.8c-1.4-0.6-2.6-1.3-3.7-2.3c-1.1-1-1.9-2.1-2.5-3.4c-0.6-1.3-0.9-2.7-0.9-4.2
		c0-1.5,0.3-2.9,0.9-4.2c0.6-1.3,1.5-2.5,2.5-3.4c1.1-1,2.3-1.7,3.7-2.3c1.5-0.6,3-0.9,4.6-0.9c1.6,0,3.2,0.3,4.6,0.9
		c1.4,0.6,2.7,1.3,3.7,2.3c1.1,1,1.9,2.1,2.5,3.4C898.4,428.3,898.6,429.8,898.6,431.3 M888.8,427.7c0,0.7-0.2,1.3-0.4,1.8l-1,0.9
		l-1.2,0.3l-1,0v-3.9l0.1-1.7h1.2l1.5,0.6C888.5,426.2,888.8,426.8,888.8,427.7z M873.6,431.3c0,1.7,0.4,3.3,1,4.8
		c0.7,1.5,1.6,2.8,2.8,3.8c1.2,1.1,2.6,2,4.2,2.6c1.6,0.6,3.3,0.9,5.2,0.9c1.8,0,3.5-0.3,5.2-0.9c1.6-0.6,3-1.5,4.3-2.6
		c1.2-1.1,2.2-2.3,2.9-3.8c0.7-1.5,1.1-3.1,1.1-4.8c0-1.7-0.3-3.3-1.1-4.7c-0.7-1.5-1.6-2.8-2.9-3.9c-1.2-1.1-2.6-2-4.3-2.7
		c-1.6-0.6-3.3-0.9-5.2-0.9c-1.9,0-3.6,0.3-5.2,0.9c-1.6,0.6-3,1.5-4.2,2.7c-1.2,1.1-2.2,2.3-2.8,3.9
		C873.9,428,873.6,429.6,873.6,431.3z M893.4,438l-4.8-6.9c1-0.1,1.9-0.5,2.5-1.2c0.7-0.6,1.1-1.5,1.1-2.5c0-1-0.4-1.9-1.2-2.5
		c-0.8-0.6-1.8-1-3.2-1c-0.7,0-1.3,0-1.8,0l-1.3,0.1h-1.4l-1.5-0.1l0.1,0.8l0.1,1.2c0.1,0.5,0.1,1.1,0.1,1.8c0,0.7,0,1.6,0,2.7
		c0,1.3,0,2.3,0,3.2c0,0.9-0.1,1.7-0.1,2.3l-0.1,1.4l-0.1,0.6l0.9-0.1l0.8,0l0.9,0l0.8,0.1l-0.1-0.9l-0.1-1.5l-0.1-1.7v-2.1l0.2-0.1
		l0.2,0.1l0.5,0.7c0.3,0.4,0.6,1.1,1.2,2c0.5,0.9,1.2,2.1,2.2,3.6l1-0.1l1,0l1,0L893.4,438z"/>
</g>
</svg>
